<mxfile host="app.diagrams.net" modified="2021-03-14T21:55:33.933Z" agent="5.0 (Windows NT 10.0; Win64; x64) AppleWebKit/537.36 (KHTML, like Gecko) Chrome/89.0.4389.82 Safari/537.36" etag="ryMx6t6Joh4GdiRS1tHX" version="14.4.8" type="github">
  <diagram id="f5xDm-sZU2RgQFvWg1b2" name="Arquitetura">
    <mxGraphModel dx="1422" dy="781" grid="1" gridSize="10" guides="1" tooltips="1" connect="1" arrows="1" fold="1" page="1" pageScale="1" pageWidth="1169" pageHeight="827" math="0" shadow="0">
      <root>
        <mxCell id="0" />
        <mxCell id="1" parent="0" />
        <mxCell id="f1FKTkvxkl4B_QiiFOp4-73" value="" style="rounded=0;whiteSpace=wrap;html=1;strokeWidth=1;align=center;fillColor=#ffe6cc;rotation=-90;strokeColor=none;" parent="1" vertex="1">
          <mxGeometry x="526" y="84.7" width="289" height="387" as="geometry" />
        </mxCell>
        <mxCell id="f1FKTkvxkl4B_QiiFOp4-72" value="" style="rounded=0;whiteSpace=wrap;html=1;strokeWidth=1;align=center;fillColor=#fff2cc;rotation=0;strokeColor=none;" parent="1" vertex="1">
          <mxGeometry x="870" y="133.12" width="240" height="453" as="geometry" />
        </mxCell>
        <mxCell id="f1FKTkvxkl4B_QiiFOp4-71" value="" style="rounded=0;whiteSpace=wrap;html=1;strokeWidth=1;align=center;fillColor=#fff2cc;rotation=-90;strokeColor=none;" parent="1" vertex="1">
          <mxGeometry x="677.5" y="231.62" width="232" height="633" as="geometry" />
        </mxCell>
        <mxCell id="f1FKTkvxkl4B_QiiFOp4-68" value="" style="whiteSpace=wrap;html=1;strokeColor=#3E4247;strokeWidth=1;fillColor=none;align=center;" parent="1" vertex="1">
          <mxGeometry x="690" y="171.12" width="160" height="240" as="geometry" />
        </mxCell>
        <mxCell id="f1FKTkvxkl4B_QiiFOp4-66" value="" style="whiteSpace=wrap;html=1;strokeColor=#3E4247;strokeWidth=1;fillColor=none;align=center;" parent="1" vertex="1">
          <mxGeometry x="888.67" y="171.12" width="150" height="100" as="geometry" />
        </mxCell>
        <mxCell id="f1FKTkvxkl4B_QiiFOp4-64" value="" style="whiteSpace=wrap;html=1;strokeColor=#3E4247;strokeWidth=1;fillColor=none;align=center;" parent="1" vertex="1">
          <mxGeometry x="888.67" y="290.12" width="150" height="200" as="geometry" />
        </mxCell>
        <mxCell id="f1FKTkvxkl4B_QiiFOp4-58" value="" style="whiteSpace=wrap;html=1;strokeColor=#3E4247;strokeWidth=1;fillColor=none;align=center;" parent="1" vertex="1">
          <mxGeometry x="490.84" y="453.12" width="160" height="200" as="geometry" />
        </mxCell>
        <mxCell id="f1FKTkvxkl4B_QiiFOp4-59" value="" style="whiteSpace=wrap;html=1;strokeColor=#3E4247;strokeWidth=1;fillColor=none;align=center;" parent="1" vertex="1">
          <mxGeometry x="690" y="453.12" width="160" height="200" as="geometry" />
        </mxCell>
        <mxCell id="f1FKTkvxkl4B_QiiFOp4-55" value="" style="rounded=0;whiteSpace=wrap;html=1;strokeWidth=1;align=center;fillColor=#dae8fc;rotation=-90;strokeColor=none;" parent="1" vertex="1">
          <mxGeometry x="263.25" y="39.75" width="113.5" height="300" as="geometry" />
        </mxCell>
        <mxCell id="f1FKTkvxkl4B_QiiFOp4-53" value="" style="rounded=0;whiteSpace=wrap;html=1;strokeWidth=1;align=center;fillColor=#dae8fc;strokeColor=none;" parent="1" vertex="1">
          <mxGeometry x="100" y="133.12" width="180" height="530" as="geometry" />
        </mxCell>
        <mxCell id="f1FKTkvxkl4B_QiiFOp4-52" value="" style="whiteSpace=wrap;html=1;align=center;fillColor=#d5e8d4;strokeColor=none;" parent="1" vertex="1">
          <mxGeometry x="291.5" y="252.45" width="178.5" height="410.67" as="geometry" />
        </mxCell>
        <mxCell id="f1FKTkvxkl4B_QiiFOp4-48" value="" style="whiteSpace=wrap;html=1;align=center;fillColor=#d5e8d4;strokeColor=#3E4247;" parent="1" vertex="1">
          <mxGeometry x="300" y="283.12" width="160" height="65.67" as="geometry" />
        </mxCell>
        <mxCell id="f1FKTkvxkl4B_QiiFOp4-47" value="" style="whiteSpace=wrap;html=1;align=center;fillColor=#d5e8d4;strokeColor=#3E4247;" parent="1" vertex="1">
          <mxGeometry x="300" y="357.12" width="160" height="296" as="geometry" />
        </mxCell>
        <mxCell id="f1FKTkvxkl4B_QiiFOp4-44" value="" style="whiteSpace=wrap;html=1;align=center;fillColor=#dae8fc;strokeColor=#3E4247;" parent="1" vertex="1">
          <mxGeometry x="110" y="283.12" width="160" height="370" as="geometry" />
        </mxCell>
        <mxCell id="f1FKTkvxkl4B_QiiFOp4-45" value="" style="whiteSpace=wrap;html=1;align=center;fillColor=#dae8fc;strokeColor=#3E4247;" parent="1" vertex="1">
          <mxGeometry x="130.5" y="460.12" width="119" height="144" as="geometry" />
        </mxCell>
        <mxCell id="f1FKTkvxkl4B_QiiFOp4-1" value="CPS" style="text;html=1;strokeColor=none;fillColor=none;align=center;verticalAlign=middle;whiteSpace=wrap;rounded=0;fontStyle=1" parent="1" vertex="1">
          <mxGeometry x="110" y="141.12" width="40" height="20" as="geometry" />
        </mxCell>
        <mxCell id="f1FKTkvxkl4B_QiiFOp4-2" value="Manufacturing Process" style="rounded=0;whiteSpace=wrap;html=1;align=center;fillColor=none;strokeColor=#3E4247;" parent="1" vertex="1">
          <mxGeometry x="130" y="171.12" width="120" height="40" as="geometry" />
        </mxCell>
        <mxCell id="f1FKTkvxkl4B_QiiFOp4-3" value="Manufacturing controller" style="text;whiteSpace=wrap;html=1;align=center;fontStyle=0" parent="1" vertex="1">
          <mxGeometry x="115" y="319.12" width="150" height="30" as="geometry" />
        </mxCell>
        <mxCell id="f1FKTkvxkl4B_QiiFOp4-4" value="Assets" style="text;whiteSpace=wrap;html=1;align=center;strokeColor=#3E4247;" parent="1" vertex="1">
          <mxGeometry x="150" y="478.12" width="80" height="30" as="geometry" />
        </mxCell>
        <mxCell id="f1FKTkvxkl4B_QiiFOp4-5" value="Processes" style="text;whiteSpace=wrap;html=1;align=center;strokeColor=#3E4247;" parent="1" vertex="1">
          <mxGeometry x="150" y="521.12" width="80" height="30" as="geometry" />
        </mxCell>
        <mxCell id="f1FKTkvxkl4B_QiiFOp4-6" value="Product" style="text;whiteSpace=wrap;html=1;align=center;strokeWidth=1;strokeColor=#3E4247;" parent="1" vertex="1">
          <mxGeometry x="150" y="564.12" width="80" height="30" as="geometry" />
        </mxCell>
        <mxCell id="f1FKTkvxkl4B_QiiFOp4-7" value="Data control" style="text;whiteSpace=wrap;html=1;align=center;" parent="1" vertex="1">
          <mxGeometry x="331.5" y="283.12" width="90" height="30" as="geometry" />
        </mxCell>
        <mxCell id="f1FKTkvxkl4B_QiiFOp4-9" value="DCS" style="text;html=1;fillColor=none;align=center;verticalAlign=middle;whiteSpace=wrap;rounded=0;strokeColor=#000000;" parent="1" vertex="1">
          <mxGeometry x="335.67" y="312.12" width="80" height="30" as="geometry" />
        </mxCell>
        <mxCell id="f1FKTkvxkl4B_QiiFOp4-10" value="Data acquisition" style="text;whiteSpace=wrap;html=1;align=center;" parent="1" vertex="1">
          <mxGeometry x="325.5" y="367.12" width="109" height="30" as="geometry" />
        </mxCell>
        <mxCell id="f1FKTkvxkl4B_QiiFOp4-11" value="Level control" style="text;whiteSpace=wrap;html=1;align=center;strokeColor=#000000;" parent="1" vertex="1">
          <mxGeometry x="335" y="406.12" width="80" height="30" as="geometry" />
        </mxCell>
        <mxCell id="f1FKTkvxkl4B_QiiFOp4-12" value="Vibration" style="text;whiteSpace=wrap;html=1;align=center;strokeColor=#000000;" parent="1" vertex="1">
          <mxGeometry x="335" y="447.12" width="80" height="30" as="geometry" />
        </mxCell>
        <mxCell id="f1FKTkvxkl4B_QiiFOp4-13" value="Displacement" style="text;whiteSpace=wrap;html=1;align=center;strokeColor=#000000;" parent="1" vertex="1">
          <mxGeometry x="334.99662597656254" y="574.1166259765625" width="80" height="30" as="geometry" />
        </mxCell>
        <mxCell id="f1FKTkvxkl4B_QiiFOp4-14" value="Temperature" style="text;whiteSpace=wrap;html=1;align=center;strokeColor=#000000;" parent="1" vertex="1">
          <mxGeometry x="336.4966259765625" y="490.11662597656255" width="80" height="30" as="geometry" />
        </mxCell>
        <mxCell id="f1FKTkvxkl4B_QiiFOp4-15" value="Pressure" style="text;whiteSpace=wrap;html=1;align=center;strokeColor=#000000;" parent="1" vertex="1">
          <mxGeometry x="334.9966259765625" y="614.1166259765625" width="80" height="30" as="geometry" />
        </mxCell>
        <mxCell id="f1FKTkvxkl4B_QiiFOp4-16" value="Flow" style="text;whiteSpace=wrap;html=1;align=center;strokeColor=#000000;" parent="1" vertex="1">
          <mxGeometry x="335.6666259765625" y="534.7866259765625" width="80" height="30" as="geometry" />
        </mxCell>
        <mxCell id="f1FKTkvxkl4B_QiiFOp4-17" value="Signal preprocessing" style="text;whiteSpace=wrap;html=1;align=center;" parent="1" vertex="1">
          <mxGeometry x="511.66662597656256" y="457.11662597656255" width="132" height="28" as="geometry" />
        </mxCell>
        <mxCell id="f1FKTkvxkl4B_QiiFOp4-18" value="Denoising" style="text;whiteSpace=wrap;html=1;align=center;strokeColor=#3E4247;" parent="1" vertex="1">
          <mxGeometry x="511.67" y="513.12" width="118.33" height="28" as="geometry" />
        </mxCell>
        <mxCell id="f1FKTkvxkl4B_QiiFOp4-19" value="Filtering" style="text;whiteSpace=wrap;html=1;align=center;strokeColor=#3E4247;" parent="1" vertex="1">
          <mxGeometry x="511.67" y="558.12" width="118.33" height="28" as="geometry" />
        </mxCell>
        <mxCell id="f1FKTkvxkl4B_QiiFOp4-21" value="CNN - Autoencoder" style="text;whiteSpace=wrap;html=1;align=center;strokeColor=#3E4247;" parent="1" vertex="1">
          <mxGeometry x="511.67" y="601.12" width="118.33" height="28" as="geometry" />
        </mxCell>
        <mxCell id="f1FKTkvxkl4B_QiiFOp4-22" value="Feature Selection" style="text;whiteSpace=wrap;html=1;align=center;" parent="1" vertex="1">
          <mxGeometry x="708.4966259765625" y="457.11662597656255" width="117" height="28" as="geometry" />
        </mxCell>
        <mxCell id="f1FKTkvxkl4B_QiiFOp4-23" value="Time-domain" style="text;whiteSpace=wrap;html=1;align=center;strokeColor=#000000;" parent="1" vertex="1">
          <mxGeometry x="710" y="506.78999999999996" width="120" height="28" as="geometry" />
        </mxCell>
        <mxCell id="f1FKTkvxkl4B_QiiFOp4-24" value="Time-frequency domain" style="text;whiteSpace=wrap;html=1;align=center;strokeColor=#3E4247;verticalAlign=middle;" parent="1" vertex="1">
          <mxGeometry x="707" y="597.4499999999999" width="120" height="35.33" as="geometry" />
        </mxCell>
        <mxCell id="f1FKTkvxkl4B_QiiFOp4-25" value="Dickey-Fuller  test" style="text;whiteSpace=wrap;html=1;align=center;strokeColor=#3E4247;" parent="1" vertex="1">
          <mxGeometry x="706.83" y="551.12" width="120.17" height="28" as="geometry" />
        </mxCell>
        <mxCell id="f1FKTkvxkl4B_QiiFOp4-26" value="Reliability of systems with data-driven approaches" style="text;whiteSpace=wrap;html=1;align=center;fontStyle=1" parent="1" vertex="1">
          <mxGeometry x="901" y="616.12" width="178" height="28" as="geometry" />
        </mxCell>
        <mxCell id="f1FKTkvxkl4B_QiiFOp4-27" value="Feature importances" style="text;whiteSpace=wrap;html=1;align=center;" parent="1" vertex="1">
          <mxGeometry x="898.6666259765625" y="301.9566259765624" width="130" height="28" as="geometry" />
        </mxCell>
        <mxCell id="f1FKTkvxkl4B_QiiFOp4-29" value="eli5" style="text;whiteSpace=wrap;html=1;align=center;strokeColor=#3E4247;" parent="1" vertex="1">
          <mxGeometry x="907.8399999999999" y="344.46" width="107" height="30" as="geometry" />
        </mxCell>
        <mxCell id="f1FKTkvxkl4B_QiiFOp4-30" value="Random Forrest" style="text;whiteSpace=wrap;html=1;align=center;strokeColor=#3E4247;" parent="1" vertex="1">
          <mxGeometry x="909.1666259765625" y="388.7866259765625" width="107" height="30" as="geometry" />
        </mxCell>
        <mxCell id="f1FKTkvxkl4B_QiiFOp4-31" value="rfpimp" style="text;whiteSpace=wrap;html=1;align=center;strokeColor=#3E4247;" parent="1" vertex="1">
          <mxGeometry x="909.1666259765625" y="437.11662597656255" width="107" height="30" as="geometry" />
        </mxCell>
        <mxCell id="f1FKTkvxkl4B_QiiFOp4-32" value="Fault prognosis" style="text;whiteSpace=wrap;html=1;align=center;" parent="1" vertex="1">
          <mxGeometry x="910.3366259765625" y="175.99662597656248" width="102" height="28" as="geometry" />
        </mxCell>
        <mxCell id="f1FKTkvxkl4B_QiiFOp4-33" value="Predição de ANN" style="text;whiteSpace=wrap;html=1;align=center;strokeColor=#3E4247;" parent="1" vertex="1">
          <mxGeometry x="906.6666259765625" y="217.1166259765625" width="112" height="28" as="geometry" />
        </mxCell>
        <mxCell id="f1FKTkvxkl4B_QiiFOp4-34" value="Key performance indicators (KPIs)" style="text;whiteSpace=wrap;html=1;align=center;" parent="1" vertex="1">
          <mxGeometry x="690.75" y="187.12" width="140" height="28" as="geometry" />
        </mxCell>
        <mxCell id="f1FKTkvxkl4B_QiiFOp4-35" value="Fault operational area" style="text;whiteSpace=wrap;html=1;align=center;strokeColor=#3E4247;verticalAlign=middle;" parent="1" vertex="1">
          <mxGeometry x="705" y="357.12" width="125" height="40" as="geometry" />
        </mxCell>
        <mxCell id="f1FKTkvxkl4B_QiiFOp4-36" value="Warning operational area" style="text;whiteSpace=wrap;html=1;align=center;strokeColor=#3E4247;" parent="1" vertex="1">
          <mxGeometry x="705" y="300" width="125" height="40" as="geometry" />
        </mxCell>
        <mxCell id="f1FKTkvxkl4B_QiiFOp4-37" value="Safety operational area" style="text;whiteSpace=wrap;html=1;align=center;strokeColor=#3E4247;" parent="1" vertex="1">
          <mxGeometry x="705" y="243.12" width="125" height="40" as="geometry" />
        </mxCell>
        <mxCell id="f1FKTkvxkl4B_QiiFOp4-38" value="Decision-making" style="text;whiteSpace=wrap;html=1;align=center;fontStyle=1" parent="1" vertex="1">
          <mxGeometry x="490.8366259765626" y="137.1166259765625" width="109" height="28" as="geometry" />
        </mxCell>
        <mxCell id="f1FKTkvxkl4B_QiiFOp4-40" value="Market" style="text;whiteSpace=wrap;html=1;align=center;strokeColor=#000000;" parent="1" vertex="1">
          <mxGeometry x="553.6666259765625" y="171.11662597656255" width="90" height="30" as="geometry" />
        </mxCell>
        <mxCell id="f1FKTkvxkl4B_QiiFOp4-41" value="Results Optimization" style="text;whiteSpace=wrap;html=1;align=center;strokeColor=#000000;" parent="1" vertex="1">
          <mxGeometry x="553.6700000000001" y="243.12" width="90" height="40" as="geometry" />
        </mxCell>
        <mxCell id="f1FKTkvxkl4B_QiiFOp4-42" value="Supply chain" style="text;whiteSpace=wrap;html=1;align=center;strokeColor=#3E4247;" parent="1" vertex="1">
          <mxGeometry x="553.6666259765625" y="318.7866259765625" width="90" height="30" as="geometry" />
        </mxCell>
        <mxCell id="f1FKTkvxkl4B_QiiFOp4-43" value="Adjustments and compensation" style="text;whiteSpace=wrap;html=1;align=center;strokeColor=#3E4247;" parent="1" vertex="1">
          <mxGeometry x="295.5" y="171.12" width="126" height="37" as="geometry" />
        </mxCell>
        <mxCell id="f1FKTkvxkl4B_QiiFOp4-46" value="IoT" style="text;html=1;strokeColor=none;fillColor=none;align=center;verticalAlign=middle;whiteSpace=wrap;rounded=0;fontStyle=1" parent="1" vertex="1">
          <mxGeometry x="291.5" y="253.12" width="40" height="20" as="geometry" />
        </mxCell>
        <mxCell id="f1FKTkvxkl4B_QiiFOp4-49" style="edgeStyle=orthogonalEdgeStyle;rounded=0;orthogonalLoop=1;jettySize=auto;html=1;exitX=0.5;exitY=1;exitDx=0;exitDy=0;" parent="1" source="f1FKTkvxkl4B_QiiFOp4-46" target="f1FKTkvxkl4B_QiiFOp4-46" edge="1">
          <mxGeometry relative="1" as="geometry" />
        </mxCell>
        <mxCell id="f1FKTkvxkl4B_QiiFOp4-50" value="" style="shape=flexArrow;endArrow=classic;html=1;entryX=0;entryY=0.5;entryDx=0;entryDy=0;fillColor=#1ba1e2;strokeColor=none;" parent="1" target="f1FKTkvxkl4B_QiiFOp4-48" edge="1">
          <mxGeometry width="50" height="50" relative="1" as="geometry">
            <mxPoint x="270" y="316.12" as="sourcePoint" />
            <mxPoint x="300" y="324.12" as="targetPoint" />
          </mxGeometry>
        </mxCell>
        <mxCell id="f1FKTkvxkl4B_QiiFOp4-51" value="" style="shape=flexArrow;endArrow=classic;html=1;exitX=1.002;exitY=0.085;exitDx=0;exitDy=0;exitPerimeter=0;fillColor=#1ba1e2;strokeColor=none;" parent="1" edge="1">
          <mxGeometry width="50" height="50" relative="1" as="geometry">
            <mxPoint x="270.32000000000016" y="559.7900000000001" as="sourcePoint" />
            <mxPoint x="300" y="560.1899999999999" as="targetPoint" />
          </mxGeometry>
        </mxCell>
        <mxCell id="f1FKTkvxkl4B_QiiFOp4-54" value="" style="shape=flexArrow;endArrow=classic;html=1;entryX=0.5;entryY=0;entryDx=0;entryDy=0;fillColor=#1ba1e2;strokeColor=none;exitX=0.5;exitY=1;exitDx=0;exitDy=0;" parent="1" source="f1FKTkvxkl4B_QiiFOp4-2" target="f1FKTkvxkl4B_QiiFOp4-44" edge="1">
          <mxGeometry width="50" height="50" relative="1" as="geometry">
            <mxPoint x="295" y="233.12" as="sourcePoint" />
            <mxPoint x="325" y="232.95500000000004" as="targetPoint" />
          </mxGeometry>
        </mxCell>
        <mxCell id="f1FKTkvxkl4B_QiiFOp4-57" value="" style="shape=flexArrow;endArrow=classic;html=1;fillColor=#1ba1e2;strokeColor=none;exitX=0;exitY=0.5;exitDx=0;exitDy=0;" parent="1" source="f1FKTkvxkl4B_QiiFOp4-43" target="f1FKTkvxkl4B_QiiFOp4-2" edge="1">
          <mxGeometry width="50" height="50" relative="1" as="geometry">
            <mxPoint x="540" y="193.12" as="sourcePoint" />
            <mxPoint x="540" y="265.12" as="targetPoint" />
          </mxGeometry>
        </mxCell>
        <mxCell id="f1FKTkvxkl4B_QiiFOp4-61" value="" style="shape=flexArrow;endArrow=classic;html=1;fillColor=#1ba1e2;strokeColor=none;entryX=0;entryY=0.25;entryDx=0;entryDy=0;" parent="1" target="f1FKTkvxkl4B_QiiFOp4-58" edge="1">
          <mxGeometry width="50" height="50" relative="1" as="geometry">
            <mxPoint x="460" y="503.12" as="sourcePoint" />
            <mxPoint x="590" y="353.12" as="targetPoint" />
          </mxGeometry>
        </mxCell>
        <mxCell id="f1FKTkvxkl4B_QiiFOp4-62" value="" style="shape=flexArrow;endArrow=classic;html=1;fillColor=#1ba1e2;strokeColor=none;exitX=1;exitY=0.5;exitDx=0;exitDy=0;entryX=0.25;entryY=0;entryDx=0;entryDy=0;" parent="1" source="f1FKTkvxkl4B_QiiFOp4-48" target="f1FKTkvxkl4B_QiiFOp4-58" edge="1">
          <mxGeometry width="50" height="50" relative="1" as="geometry">
            <mxPoint x="470.0000000000002" y="513.12" as="sourcePoint" />
            <mxPoint x="561" y="451.12" as="targetPoint" />
            <Array as="points">
              <mxPoint x="500" y="316.12" />
              <mxPoint x="500" y="383.12" />
              <mxPoint x="531" y="383.12" />
            </Array>
          </mxGeometry>
        </mxCell>
        <mxCell id="f1FKTkvxkl4B_QiiFOp4-63" value="" style="shape=flexArrow;endArrow=classic;html=1;fillColor=#1ba1e2;strokeColor=none;entryX=0;entryY=0.25;entryDx=0;entryDy=0;exitX=1;exitY=0.25;exitDx=0;exitDy=0;" parent="1" source="f1FKTkvxkl4B_QiiFOp4-58" target="f1FKTkvxkl4B_QiiFOp4-59" edge="1">
          <mxGeometry width="50" height="50" relative="1" as="geometry">
            <mxPoint x="650.8400000000003" y="506.78999999999996" as="sourcePoint" />
            <mxPoint x="681.68" y="506.78999999999996" as="targetPoint" />
          </mxGeometry>
        </mxCell>
        <mxCell id="f1FKTkvxkl4B_QiiFOp4-65" value="" style="shape=flexArrow;endArrow=classic;html=1;fillColor=#1ba1e2;strokeColor=none;entryX=0.5;entryY=1;entryDx=0;entryDy=0;exitX=1;exitY=0.5;exitDx=0;exitDy=0;" parent="1" source="f1FKTkvxkl4B_QiiFOp4-59" target="f1FKTkvxkl4B_QiiFOp4-64" edge="1">
          <mxGeometry width="50" height="50" relative="1" as="geometry">
            <mxPoint x="849.9999999999999" y="504.77" as="sourcePoint" />
            <mxPoint x="889.1600000000002" y="504.77" as="targetPoint" />
            <Array as="points">
              <mxPoint x="964" y="553.12" />
            </Array>
          </mxGeometry>
        </mxCell>
        <mxCell id="f1FKTkvxkl4B_QiiFOp4-67" value="" style="shape=flexArrow;endArrow=classic;html=1;fillColor=#1ba1e2;strokeColor=none;entryX=1;entryY=0.5;entryDx=0;entryDy=0;exitX=1;exitY=0.75;exitDx=0;exitDy=0;" parent="1" source="f1FKTkvxkl4B_QiiFOp4-59" target="f1FKTkvxkl4B_QiiFOp4-66" edge="1">
          <mxGeometry width="50" height="50" relative="1" as="geometry">
            <mxPoint x="870" y="601.12" as="sourcePoint" />
            <mxPoint x="985" y="538.12" as="targetPoint" />
            <Array as="points">
              <mxPoint x="1090" y="601.12" />
              <mxPoint x="1090" y="413.12" />
              <mxPoint x="1090" y="221.12" />
            </Array>
          </mxGeometry>
        </mxCell>
        <mxCell id="f1FKTkvxkl4B_QiiFOp4-69" value="" style="shape=flexArrow;endArrow=classic;html=1;fillColor=#1ba1e2;strokeColor=none;entryX=1;entryY=0.209;entryDx=0;entryDy=0;exitX=0;exitY=0.5;exitDx=0;exitDy=0;entryPerimeter=0;" parent="1" source="f1FKTkvxkl4B_QiiFOp4-66" target="f1FKTkvxkl4B_QiiFOp4-68" edge="1">
          <mxGeometry width="50" height="50" relative="1" as="geometry">
            <mxPoint x="849.5099999999999" y="273.12" as="sourcePoint" />
            <mxPoint x="888.6700000000002" y="273.12" as="targetPoint" />
          </mxGeometry>
        </mxCell>
        <mxCell id="f1FKTkvxkl4B_QiiFOp4-70" value="" style="shape=flexArrow;endArrow=classic;html=1;fillColor=#1ba1e2;strokeColor=none;exitX=0;exitY=0.25;exitDx=0;exitDy=0;entryX=1.012;entryY=0.707;entryDx=0;entryDy=0;entryPerimeter=0;" parent="1" source="f1FKTkvxkl4B_QiiFOp4-64" target="f1FKTkvxkl4B_QiiFOp4-68" edge="1">
          <mxGeometry width="50" height="50" relative="1" as="geometry">
            <mxPoint x="885.5200000000001" y="357.12" as="sourcePoint" />
            <mxPoint x="850" y="357.12" as="targetPoint" />
          </mxGeometry>
        </mxCell>
        <mxCell id="f1FKTkvxkl4B_QiiFOp4-74" value="" style="shape=flexArrow;endArrow=classic;html=1;fillColor=#1ba1e2;strokeColor=none;exitX=0.5;exitY=1;exitDx=0;exitDy=0;entryX=1;entryY=0.5;entryDx=0;entryDy=0;" parent="1" source="f1FKTkvxkl4B_QiiFOp4-68" target="f1FKTkvxkl4B_QiiFOp4-43" edge="1">
          <mxGeometry width="50" height="50" relative="1" as="geometry">
            <mxPoint x="527.1700000000003" y="217.115" as="sourcePoint" />
            <mxPoint x="628.17" y="352.28" as="targetPoint" />
            <Array as="points">
              <mxPoint x="770" y="433.12" />
              <mxPoint x="710" y="433.12" />
              <mxPoint x="670" y="433.12" />
              <mxPoint x="590" y="433.12" />
              <mxPoint x="590" y="413.12" />
              <mxPoint x="590" y="403.12" />
              <mxPoint x="590" y="363.12" />
              <mxPoint x="550" y="363.12" />
              <mxPoint x="530" y="363.12" />
              <mxPoint x="530" y="353.12" />
              <mxPoint x="530" y="343.12" />
              <mxPoint x="530" y="323.12" />
              <mxPoint x="530" y="313.12" />
              <mxPoint x="530" y="291.12" />
              <mxPoint x="500" y="291.12" />
              <mxPoint x="500" y="243.12" />
              <mxPoint x="500" y="213.12" />
              <mxPoint x="500" y="190.12" />
            </Array>
          </mxGeometry>
        </mxCell>
        <mxCell id="f1FKTkvxkl4B_QiiFOp4-75" value="" style="shape=flexArrow;endArrow=classic;html=1;fillColor=#1ba1e2;strokeColor=none;entryX=0.5;entryY=0;entryDx=0;entryDy=0;exitX=0.5;exitY=1;exitDx=0;exitDy=0;" parent="1" source="f1FKTkvxkl4B_QiiFOp4-40" target="f1FKTkvxkl4B_QiiFOp4-41" edge="1">
          <mxGeometry width="50" height="50" relative="1" as="geometry">
            <mxPoint x="612.98" y="273.12" as="sourcePoint" />
            <mxPoint x="574.31" y="273.2800000000001" as="targetPoint" />
          </mxGeometry>
        </mxCell>
        <mxCell id="f1FKTkvxkl4B_QiiFOp4-76" value="" style="shape=flexArrow;endArrow=classic;html=1;fillColor=#1ba1e2;strokeColor=none;entryX=0.5;entryY=1;entryDx=0;entryDy=0;exitX=0.5;exitY=0;exitDx=0;exitDy=0;" parent="1" source="f1FKTkvxkl4B_QiiFOp4-42" target="f1FKTkvxkl4B_QiiFOp4-41" edge="1">
          <mxGeometry width="50" height="50" relative="1" as="geometry">
            <mxPoint x="609.9966259765624" y="338.45662597656246" as="sourcePoint" />
            <mxPoint x="610" y="380.46000000000004" as="targetPoint" />
          </mxGeometry>
        </mxCell>
        <mxCell id="f1FKTkvxkl4B_QiiFOp4-77" value="" style="shape=flexArrow;endArrow=classic;html=1;fillColor=#1ba1e2;strokeColor=none;entryX=1;entryY=0.5;entryDx=0;entryDy=0;exitX=0.003;exitY=0.385;exitDx=0;exitDy=0;exitPerimeter=0;" parent="1" source="f1FKTkvxkl4B_QiiFOp4-68" target="f1FKTkvxkl4B_QiiFOp4-41" edge="1">
          <mxGeometry width="50" height="50" relative="1" as="geometry">
            <mxPoint x="673.9966259765624" y="339.11662597656243" as="sourcePoint" />
            <mxPoint x="674.0000000000002" y="290.12" as="targetPoint" />
          </mxGeometry>
        </mxCell>
      </root>
    </mxGraphModel>
  </diagram>
</mxfile>
